<svg xmlns="http://www.w3.org/2000/svg" xmlns:xlink="http://www.w3.org/1999/xlink" width="157.42" height="266.32" viewBox="0 0 157.42 266.32">
  <defs>
    <style>
      .cls-1 {
        isolation: isolate;
      }

      .cls-2, .cls-3 {
        fill: #2e3191;
      }

      .cls-2, .cls-32 {
        opacity: 0.1;
      }

      .cls-3 {
        opacity: 0.2;
      }

      .cls-4 {
        fill: #e2eafb;
      }

      .cls-5 {
        fill: #cbdcf9;
      }

      .cls-6 {
        fill: #f9faff;
      }

      .cls-7 {
        fill: #80a6f5;
      }

      .cls-8 {
        fill: #9ebbfa;
      }

      .cls-9 {
        fill: #b7cff8;
      }

      .cls-10, .cls-26, .cls-31 {
        fill: #207bff;
      }

      .cls-10 {
        opacity: 0.4;
      }

      .cls-11 {
        fill: #004bff;
        opacity: 0.5;
        mix-blend-mode: multiply;
      }

      .cls-12 {
        fill: #c4d7f9;
      }

      .cls-13 {
        fill: url(#_ÂÁ_Ï_ÌÌ_È_ËÂÌÚ_30);
      }

      .cls-14 {
        fill: #4aeaff;
      }

      .cls-15, .cls-30 {
        fill: #fff;
      }

      .cls-16 {
        fill: #bdf8ff;
      }

      .cls-17 {
        fill: url(#linear-gradient);
      }

      .cls-18 {
        fill: #eb1c24;
      }

      .cls-19 {
        fill: url(#linear-gradient-2);
      }

      .cls-20 {
        fill: url(#linear-gradient-3);
      }

      .cls-21 {
        fill: url(#linear-gradient-4);
      }

      .cls-22 {
        fill: url(#linear-gradient-5);
      }

      .cls-23 {
        fill: url(#linear-gradient-6);
      }

      .cls-24 {
        fill: url(#linear-gradient-7);
      }

      .cls-25 {
        fill: #92b3fa;
      }

      .cls-27 {
        fill: url(#_ÂÁ_Ï_ÌÌ_È_ËÂÌÚ_14);
      }

      .cls-28 {
        fill: url(#_ÂÁ_Ï_ÌÌ_È_ËÂÌÚ_18);
      }

      .cls-29 {
        fill: #4880f7;
      }

      .cls-30 {
        opacity: 0.8;
      }

      .cls-31 {
        opacity: 0.72;
      }

      .cls-32, .cls-33, .cls-34, .cls-35 {
        fill: #3ae5fa;
      }

      .cls-33 {
        opacity: 0.3;
      }

      .cls-35 {
        opacity: 0.7;
      }
    </style>
    <radialGradient id="_ÂÁ_Ï_ÌÌ_È_ËÂÌÚ_30" data-name="¡ÂÁ˚ÏˇÌÌ˚È „‡‰ËÂÌÚ 30" cx="2978.7" cy="482.57" r="5.93" gradientTransform="translate(-2863.05)" gradientUnits="userSpaceOnUse">
      <stop offset="0" stop-color="#4aeaff"/>
      <stop offset="1" stop-color="#00709d"/>
    </radialGradient>
    <linearGradient id="linear-gradient" x1="1608" y1="378.94" x2="1608" y2="411.66" gradientTransform="matrix(-1, 0, 0, 1, 1727.34, 0)" gradientUnits="userSpaceOnUse">
      <stop offset="0.02" stop-color="#dc2a21"/>
      <stop offset="0.06" stop-color="#c7201b"/>
      <stop offset="0.1" stop-color="#b61717"/>
      <stop offset="0.15" stop-color="#ab1113"/>
      <stop offset="0.22" stop-color="#a40e12"/>
      <stop offset="0.43" stop-color="#a20d11"/>
      <stop offset="0.79" stop-color="#6b0006"/>
    </linearGradient>
    <linearGradient id="linear-gradient-2" x1="1598.5" y1="380.4" x2="1598.5" y2="403.88" gradientTransform="matrix(-1, 0, 0, 1, 1727.34, 0)" gradientUnits="userSpaceOnUse">
      <stop offset="0" stop-color="#ac1a27"/>
      <stop offset="0.08" stop-color="#9e151f"/>
      <stop offset="0.28" stop-color="#7d0a0e"/>
      <stop offset="0.44" stop-color="#680304"/>
      <stop offset="0.56" stop-color="#610000"/>
      <stop offset="0.73" stop-color="#520000"/>
      <stop offset="1" stop-color="#3f0000"/>
    </linearGradient>
    <linearGradient id="linear-gradient-3" x1="-641.34" y1="392.49" x2="-626.34" y2="392.49" gradientTransform="translate(734.8)" gradientUnits="userSpaceOnUse">
      <stop offset="0" stop-color="#bd1349"/>
      <stop offset="0.24" stop-color="#bd124e"/>
      <stop offset="0.25" stop-color="#bd124e"/>
      <stop offset="1" stop-color="#7a0025"/>
    </linearGradient>
    <linearGradient id="linear-gradient-4" x1="-646.58" y1="400.3" x2="-626.26" y2="400.3" gradientTransform="translate(734.8)" gradientUnits="userSpaceOnUse">
      <stop offset="0" stop-color="#282880"/>
      <stop offset="0.27" stop-color="#26257c"/>
      <stop offset="0.56" stop-color="#1f1b6f"/>
      <stop offset="0.85" stop-color="#140b5a"/>
      <stop offset="1" stop-color="#0d004c"/>
    </linearGradient>
    <linearGradient id="linear-gradient-5" x1="-641.78" y1="400.3" x2="-626.33" y2="400.3" xlink:href="#linear-gradient-3"/>
    <linearGradient id="linear-gradient-6" x1="-638.65" y1="392.43" x2="-619.24" y2="392.43" xlink:href="#linear-gradient-4"/>
    <linearGradient id="linear-gradient-7" x1="1613.31" y1="399.52" x2="1613.31" y2="388.41" gradientTransform="matrix(-1, 0, 0, 1, 1727.34, 0)" gradientUnits="userSpaceOnUse">
      <stop offset="0" stop-color="#ec2d24"/>
      <stop offset="0.12" stop-color="#ec2824"/>
      <stop offset="0.25" stop-color="#eb1c24"/>
      <stop offset="1" stop-color="#74020d"/>
    </linearGradient>
    <linearGradient id="_ÂÁ_Ï_ÌÌ_È_ËÂÌÚ_14" data-name="¡ÂÁ˚ÏˇÌÌ˚È „‡‰ËÂÌÚ 14" x1="2931.05" y1="447.79" x2="2997.08" y2="447.79" gradientTransform="translate(-2873.6 14.89) rotate(-2.88)" gradientUnits="userSpaceOnUse">
      <stop offset="0" stop-color="#003a6b"/>
      <stop offset="1" stop-color="#00204c"/>
    </linearGradient>
    <linearGradient id="_ÂÁ_Ï_ÌÌ_È_ËÂÌÚ_18" data-name="¡ÂÁ˚ÏˇÌÌ˚È „‡‰ËÂÌÚ 18" x1="2957.56" y1="285.46" x2="2991.01" y2="341.82" gradientTransform="translate(-2863.05)" gradientUnits="userSpaceOnUse">
      <stop offset="0" stop-color="#cad6e0"/>
      <stop offset="0.05" stop-color="#aec0d0"/>
      <stop offset="0.15" stop-color="#7998b1"/>
      <stop offset="0.25" stop-color="#4e7698"/>
      <stop offset="0.35" stop-color="#2c5c84"/>
      <stop offset="0.44" stop-color="#144976"/>
      <stop offset="0.53" stop-color="#053e6e"/>
      <stop offset="0.6" stop-color="#003a6b"/>
      <stop offset="1" stop-color="#00204c"/>
    </linearGradient>
  </defs>
  <title>robot</title>
  <g class="cls-1">
    <g id="robot">
      <g id="sombra">
        <ellipse class="cls-2" cx="71.65" cy="255.64" rx="47.58" ry="10.68"/>
        <path class="cls-3" d="M67.62,522.38c0,3.75,16.6,6.79,37.07,6.79s37.07-3,37.07-6.79-16.6-6.8-37.07-6.8S67.62,518.62,67.62,522.38Z" transform="translate(-33.03 -266.74)"/>
        <ellipse class="cls-3" cx="71.65" cy="255.64" rx="22.32" ry="4.09"/>
      </g>
      <g id="brazoIzquierdo">
        <g>
          <path class="cls-4" d="M188.79,342.57c-9.75,37.65-27.32,50.33-27.32,50.33s-7.55,1.55-14.71-10.15a20.26,20.26,0,0,1-2.13-16s30.07-35,37.7-46.39S192.45,328.43,188.79,342.57Z" transform="translate(-33.03 -266.74)"/>
          <path class="cls-4" d="M188.79,342.57c-9.75,37.65-27.32,50.33-27.32,50.33s-7.55,1.55-14.71-10.15a20.26,20.26,0,0,1-2.13-16s30.07-35,37.7-46.39S192.45,328.43,188.79,342.57Z" transform="translate(-33.03 -266.74)"/>
          <path class="cls-5" d="M186.63,336.5c-6.83,22.23-13,32.85-19.15,38.74-10.47,10.11-18.35,8.32-23.31.64a19.61,19.61,0,0,0,2.59,6.87c7.16,11.7,14.71,10.15,14.71,10.15s17.57-12.68,27.32-50.33c2.53-9.77,2.12-22.1-.89-25C188.12,318.6,190.69,323.25,186.63,336.5Z" transform="translate(-33.03 -266.74)"/>
          <path class="cls-4" d="M169.64,337.59c1.69-2.33,2.64-7.18,2.53-9.52a22.15,22.15,0,0,0-1.45-5.67,3.35,3.35,0,0,1,3.66.93c1.82,1.78,2.35,4.89,2.71,6.25S169.64,337.59,169.64,337.59Z" transform="translate(-33.03 -266.74)"/>
          <path class="cls-6" d="M167.47,365.51a120.12,120.12,0,0,1-8.88,9.94c-1.57,1.48,0,3,1.4,2,3.11-2.23,7.65-7.56,13.3-15.27,3.31-4.52,12.2-22.71,13.17-34.69C186.16,328,181.63,348,167.47,365.51Z" transform="translate(-33.03 -266.74)"/>
          <path class="cls-7" d="M188.38,346.45l0,0a.4.4,0,0,1-.56-.14c-3.94-6.38-12.13-11.17-19.57-7.47a.41.41,0,0,1-.36-.73c7.87-3.92,16.5,1.08,20.63,7.78A.41.41,0,0,1,188.38,346.45Z" transform="translate(-33.03 -266.74)"/>
        </g>
        <path class="cls-8" d="M162.2,379.4c.61,10.34-2.51,18.93-6.95,19.2s-8.55-7.91-9.16-18.26,2.51-18.94,6.95-19.2S161.59,369.05,162.2,379.4Z" transform="translate(-33.03 -266.74)"/>
      </g>
      <g id="torso">
        <path class="cls-4" d="M56.71,354.75c-4.61-.3-20.86,16-16,31.82s32.59,68.59,38.86,87.07,10,23,19,24.7,22.39,2.29,38-30.33,18-69.26,18.74-86.66-1.11-24.32-7.2-26.3C133.91,350.42,56.71,354.75,56.71,354.75Z" transform="translate(-33.03 -266.74)"/>
        <path class="cls-6" d="M130.26,464.17c12.11-34.32,10.65-71.21,9.53-88.68-.75-11.62-2.12-18.47-4.8-22.16-12.9-.72-31.75-.41-47.72.11C95.81,376,108.43,413.91,110.54,453c1.4,26.08-2.2,38.82-7.19,45.34C111.48,496.71,121.25,489.7,130.26,464.17Z" transform="translate(-33.03 -266.74)"/>
        <path class="cls-9" d="M149.46,356.5c0,3.38-23.9,8.63-48,8.67s-48-5.14-48-8.52,23.9-3.69,48-3.73S149.45,353.11,149.46,356.5Z" transform="translate(-33.03 -266.74)"/>
        <path class="cls-10" d="M134.88,357.19c0,2.34-16.46,6-33.06,6s-33.08-3.55-33.09-5.88,16.47-2.56,33.07-2.58S134.88,354.85,134.88,357.19Z" transform="translate(-33.03 -266.74)"/>
        <path class="cls-11" d="M124.78,358.4c0,.9-11.35,2-22.42,2.05s-21.65-1.08-21.65-2,10.58-1.25,21.65-1.27S124.77,357.5,124.78,358.4Z" transform="translate(-33.03 -266.74)"/>
        <path class="cls-12" d="M89.52,477.46C87,463.63,83.14,418.4,74,386.48c-4.55-16-15.28-27.28-25.66-23.7C41,365.31,38.1,378,40.74,386.57c4.9,15.81,32.59,68.59,38.86,87.07s10,23,19,24.7c4.59.86,10.39,1.43,17.07-2.66C106.58,497.1,93.76,500.36,89.52,477.46Z" transform="translate(-33.03 -266.74)"/>
        <path class="cls-13" d="M121.43,484.19a16.63,16.63,0,0,1-5.5.91,25.71,25.71,0,0,1-6.14-.45,2.47,2.47,0,0,1-2.15-2.29h0a2.21,2.21,0,0,1,2.15-2.27s4.73.52,5.88.51a41,41,0,0,0,6-.56c1.18,0,2.29.35,1.93,2A2.93,2.93,0,0,1,121.43,484.19Z" transform="translate(-33.03 -266.74)"/>
        <path class="cls-14" d="M120.67,483.94a16.64,16.64,0,0,1-4.75.64,26.15,26.15,0,0,1-5.31-.32c-1-.2-1.86-.73-1.86-1.63h0a1.76,1.76,0,0,1,1.86-1.62s4.09.38,5.08.37a44.09,44.09,0,0,0,5.16-.4c1,0,2,.25,1.68,1.46C122.38,483,121.91,483.56,120.67,483.94Z" transform="translate(-33.03 -266.74)"/>
        <path class="cls-7" d="M114.6,473.76c-10.86,0-24.17-2.35-38.54-8.26a.39.39,0,0,1-.21-.5.38.38,0,0,1,.5-.21c26.77,11,49.8,9.6,59.87,3.65a.38.38,0,0,1,.52.14.39.39,0,0,1-.13.53C131.82,471.94,124.16,473.76,114.6,473.76Z" transform="translate(-33.03 -266.74)"/>
        <path class="cls-15" d="M114.32,472.9c-10.86,0-24.18-2.35-38.54-8.26a.38.38,0,1,1,.29-.71c26.77,11,49.79,9.61,59.86,3.65a.39.39,0,0,1,.4.67C131.54,471.08,123.88,472.9,114.32,472.9Z" transform="translate(-33.03 -266.74)"/>
        <path class="cls-6" d="M153.27,363.67c2.06,41.82-4,61.61-4,61.61s5.76-31.6.44-62.14C149,359,153,357.14,153.27,363.67Z" transform="translate(-33.03 -266.74)"/>
        <path class="cls-15" d="M57.11,360.75s4.76,2.86,22.16,4.48,40.3,1.31,40.3,1.31-21.1,2.79-40.38.72S57.11,360.75,57.11,360.75Z" transform="translate(-33.03 -266.74)"/>
        <path class="cls-16" d="M118.48,481.24c-.84.07-1.82.13-2.79.14s-5.08-.37-5.08-.37a1.72,1.72,0,0,0-.39,0l1.88,3.42c1,.09,2.3.13,3.82.11a17.11,17.11,0,0,0,4.42-.56Z" transform="translate(-33.03 -266.74)"/>
        <g>
          <path class="cls-17" d="M130.43,392.33a14.78,14.78,0,0,0-9.21-13.69,14.87,14.87,0,0,0-1.65.21,13.62,13.62,0,0,0-11.31,13c0,.14,0,.29,0,.44v.17a8.43,8.43,0,0,1,11.18-8c-.83-.3-.8-.3,0,0a8.2,8.2,0,0,1,2.85-.5,8.07,8.07,0,0,1,8,8.35v.07a7.94,7.94,0,0,1-8,8.27,8.08,8.08,0,0,1-2.59-.41,8.59,8.59,0,0,1-3.13.6,8.43,8.43,0,0,1-8.43-8.29,13.47,13.47,0,0,0,11.23,13.23,13.86,13.86,0,0,0,1.73.22A14.79,14.79,0,0,0,130.43,392.33Z" transform="translate(-33.03 -266.74)"/>
          <path class="cls-18" d="M125.11,392.43a8.45,8.45,0,0,1-5.3,7.83,8.08,8.08,0,0,0,2.59.41,7.94,7.94,0,0,0,8-8.27v-.07a8.07,8.07,0,0,0-8-8.35,8.2,8.2,0,0,0-2.85.5c-.85-.32-.88-.32,0,0A8.44,8.44,0,0,1,125.11,392.43Z" transform="translate(-33.03 -266.74)"/>
          <path class="cls-19" d="M122.4,378.59c-.4,0-.79,0-1.18.05a14.78,14.78,0,0,1,0,27.38c.36,0,.74,0,1.12,0a13.73,13.73,0,0,0,14.15-13.73v-.08C136.48,384.7,130.6,378.59,122.4,378.59Z" transform="translate(-33.03 -266.74)"/>
          <path class="cls-20" d="M108.25,392.43v0Z" transform="translate(-33.03 -266.74)"/>
          <path class="cls-21" d="M119.57,400.18c-.88.31-.86.32,0,0Z" transform="translate(-33.03 -266.74)"/>
          <path class="cls-22" d="M119.57,400.18c-.88.31-.86.32,0,0Z" transform="translate(-33.03 -266.74)"/>
          <path class="cls-23" d="M116.68,400.86a8.59,8.59,0,0,0,3.13-.6l-.24-.08c-.86.32-.88.31,0,0a8.23,8.23,0,0,1-5.42-7.85v-.08a8.09,8.09,0,0,1,5.33-7.77l0,0a8.43,8.43,0,0,0-11.18,8v.15A8.43,8.43,0,0,0,116.68,400.86Z" transform="translate(-33.03 -266.74)"/>
          <path class="cls-24" d="M116.68,400.86a8.59,8.59,0,0,0,3.13-.6l-.24-.08c-.86.32-.88.31,0,0a8.23,8.23,0,0,1-5.42-7.85v-.08a8.09,8.09,0,0,1,5.33-7.77l0,0a8.43,8.43,0,0,0-11.18,8v.15A8.43,8.43,0,0,0,116.68,400.86Z" transform="translate(-33.03 -266.74)"/>
        </g>
      </g>
      <g id="brazoDerecho">
        <path class="cls-25" d="M67,386.69c-1.83-11.87-8.78-20.64-15.51-19.6s-10.71,11.5-8.88,23.36,8.78,20.65,15.51,19.61S68.83,398.56,67,386.69Z" transform="translate(-33.03 -266.74)"/>
        <path class="cls-26" d="M52,369.42c6.08-.49,11.73,8,12.61,19s-3.36,20.28-9.44,20.77-11.73-8.05-12.6-19c-.77-9.61,2.38-17.94,7.26-20.19A6.36,6.36,0,0,1,52,369.42Zm11.84,19.07C63,378,57.69,369.73,52,370.18s-9.57,9.4-8.73,19.94,6.13,18.76,11.78,18.31a5.59,5.59,0,0,0,2-.52C61.61,405.8,64.55,397.76,63.81,388.49Z" transform="translate(-33.03 -266.74)"/>
        <g>
          <path class="cls-4" d="M35.79,431.7c-7.33-33,1.74-46.66,6.62-53,1.43-1.87,6.78-7.8,12.33-5,6.53,3.34,7.62,16.72,7.35,19-1.06,9-9.16,43.22-10.62,55.61C49.89,461.83,38.93,445.79,35.79,431.7Z" transform="translate(-33.03 -266.74)"/>
          <path class="cls-5" d="M62.09,392.74c-.18,1.53-.57,3.79-1.08,6.53-1.59,7.92-4.54,21.64-6.78,33.18-1.27,6.43-2.32,12.16-2.76,15.9,0,.21,0,.4-.08.59-1.72-15.56,5.36-44.5,6-58.72.19-3.9,1.26-12.37-6.08-17.26a6.65,6.65,0,0,1,3.39.75C61.27,377.05,62.36,390.43,62.09,392.74Z" transform="translate(-33.03 -266.74)"/>
          <path class="cls-6" d="M38.82,388.09c-9.54,16.62,2.8,54.76,2.8,54.76s-2-29.21.42-42.86S42.07,382.41,38.82,388.09Z" transform="translate(-33.03 -266.74)"/>
          <path class="cls-5" d="M52.36,440.92a43.86,43.86,0,0,0,2.21,5.31c.28.44,3.65,1.71,3.56,1.46-.82-2.27-4-14.55-3.23-18.39C55.18,427.94,51.48,438.78,52.36,440.92Z" transform="translate(-33.03 -266.74)"/>
          <path class="cls-7" d="M55.31,429.55a.37.37,0,0,1-.36-.07c-5.28-4.56-13.89-6.51-19.44-1.14a.38.38,0,1,1-.53-.55c5.87-5.69,14.93-3.68,20.47,1.1a.39.39,0,0,1,0,.55A.42.42,0,0,1,55.31,429.55Z" transform="translate(-33.03 -266.74)"/>
        </g>
      </g>
      <g id="cabeza">
        <g>
          <path class="cls-4" d="M60.37,341.89c11,14.12,44.55,11.43,53.9,10.54s25.21-2.52,30.92-19.75,2.85-43.5-12.84-57.16-57.71-11.43-72,7S56.56,337,60.37,341.89Z" transform="translate(-33.03 -266.74)"/>
          <path class="cls-15" d="M63.27,286.26c.62-.22,13.59-10.31,37.07-12.32,8.08-.69,20.68,0,28.76,1.12-.8-.85-12.41-7.56-36.37-5.06A47.22,47.22,0,0,0,63.27,286.26Z" transform="translate(-33.03 -266.74)"/>
          <path class="cls-6" d="M106,282.09c-7.56.12-15.14.65-22.26,3.36l-.17.07c7.4,15.66,8,36.07,3.68,50.66A30.71,30.71,0,0,1,80.91,348c13.06,2.31,27.68,1.11,33.36.56,6.19-.58,15.22-1.5,22.28-7a36.17,36.17,0,0,0,2-5.35c4.39-14.78,3.71-35.53-4-51.27A121.1,121.1,0,0,0,106,282.09Z" transform="translate(-33.03 -266.74)"/>
          <path class="cls-27" d="M78.62,296c4.36-5.92,16.24-7.47,31.12-8.36,19.2-1.14,25.69,2.33,27.66,4.55s5.36,13.25,4.63,24-.85,13.94-5.26,16.6-17.14,5.27-25.37,5.47c-15.59.38-23.45-.38-28.66-3.44-2.67-1.56-6-10-6.59-20.39S76.37,299.07,78.62,296Z" transform="translate(-33.03 -266.74)"/>
          <path class="cls-28" d="M109.2,289.29c-9.24.53-17.27,1.33-22.93,3.33,5,13.72,5,30,1.31,42,0,.14-.09.27-.14.41,4.94,1.43,12,1.77,23.35,1.5,7.9-.19,20.11-2.63,24.34-5.12a7.54,7.54,0,0,0,3.32-3.45,71.79,71.79,0,0,0-2.44-34.1c-.1-.13-.19-.25-.28-.35C133.85,291.46,127.62,288.22,109.2,289.29Z" transform="translate(-33.03 -266.74)"/>
          <path class="cls-8" d="M68.53,305.84c-.26,5.83-3.51,10.41-7.26,10.24s-6.59-5-6.33-10.84S58.45,294.83,62.2,295,68.79,300,68.53,305.84Z" transform="translate(-33.03 -266.74)"/>
          <path class="cls-29" d="M65.56,305.41c-.18,4.08-2.18,7.31-4.45,7.21s-4-3.49-3.79-7.58,2.17-7.32,4.45-7.21S65.74,301.32,65.56,305.41Z" transform="translate(-33.03 -266.74)"/>
          <path class="cls-26" d="M65.62,305.71h0A14.31,14.31,0,0,0,63.91,298c-1.26-2.16-3-3.4-5-3.49-4-.17-7.4,4.58-7.67,10.61S54,316.15,58,316.32h.22C62,316.33,65.36,311.63,65.62,305.71Zm-6.73-10.47c1.68.07,3.23,1.18,4.35,3.11a13.52,13.52,0,0,1,1.61,7.33c-.25,5.6-3.33,10-6.86,9.87s-6.21-4.84-6-10.44,3.22-9.87,6.68-9.87Z" transform="translate(-33.03 -266.74)"/>
          <path class="cls-6" d="M58.42,319.34l2.75.09s1.18,11.44,4.47,18.16,8,8.87,8,8.87-7.06-2.28-11.28-11C59.3,329.19,58.42,319.34,58.42,319.34Z" transform="translate(-33.03 -266.74)"/>
          <path class="cls-30" d="M81.21,296.87v0a1.46,1.46,0,0,0,2.1.49c1.34-.91,3.38-2.28,4.55-2.92,1.86-1,11-4.4,11-4.4s-9.19.19-17,4.43A1.75,1.75,0,0,0,81.21,296.87Z" transform="translate(-33.03 -266.74)"/>
        </g>
        <path class="cls-31" d="M74,304.5c0,1.81-.84,3.28-1.88,3.28s-1.87-1.47-1.87-3.28.84-3.27,1.87-3.27S74,302.7,74,304.5Z" transform="translate(-33.03 -266.74)"/>
      </g>
      <g id="ojos">
        <rect class="cls-32" x="86.57" y="31.92" width="13.24" height="17.3" rx="3.23"/>
        <rect class="cls-32" x="87.96" y="33.78" width="10.47" height="13.58" rx="3.23"/>
        <rect class="cls-33" x="89.72" y="35.53" width="7.26" height="10.57" rx="2"/>
        <path class="cls-34" d="M129.24,306.34h-6a.29.29,0,0,1-.29-.29.28.28,0,0,1,.29-.28h6a.28.28,0,0,1,.29.28A.29.29,0,0,1,129.24,306.34Z" transform="translate(-33.03 -266.74)"/>
        <path class="cls-34" d="M129.24,307.6h-6a.29.29,0,0,1,0-.58h6a.29.29,0,1,1,0,.58Z" transform="translate(-33.03 -266.74)"/>
        <path class="cls-34" d="M129.24,308.91h-6a.29.29,0,0,1,0-.58h6a.29.29,0,1,1,0,.58Z" transform="translate(-33.03 -266.74)"/>
        <path class="cls-34" d="M128.48,303.93H124a.29.29,0,0,1,0-.58h4.44a.29.29,0,1,1,0,.58Z" transform="translate(-33.03 -266.74)"/>
        <path class="cls-34" d="M129.24,305.23h-6a.29.29,0,1,1,0-.57h6a.29.29,0,1,1,0,.57Z" transform="translate(-33.03 -266.74)"/>
        <path class="cls-34" d="M129.24,310.46h-6a.29.29,0,1,1,0-.58h6a.29.29,0,1,1,0,.58Z" transform="translate(-33.03 -266.74)"/>
        <path class="cls-34" d="M129.24,311.72h-6a.29.29,0,0,1,0-.58h6a.29.29,0,1,1,0,.58Z" transform="translate(-33.03 -266.74)"/>
        <g>
          <rect class="cls-32" x="65.47" y="31.92" width="13.24" height="17.3" rx="3.23"/>
          <rect class="cls-32" x="66.85" y="33.78" width="10.47" height="13.58" rx="3.23"/>
          <rect class="cls-33" x="68.62" y="35.53" width="7.26" height="10.57" rx="2"/>
          <path class="cls-34" d="M108.14,306.34h-6a.29.29,0,0,1-.28-.29.28.28,0,0,1,.28-.28h6a.28.28,0,0,1,.29.28A.29.29,0,0,1,108.14,306.34Z" transform="translate(-33.03 -266.74)"/>
          <path class="cls-34" d="M108.14,307.6h-6a.29.29,0,0,1,0-.58h6a.29.29,0,1,1,0,.58Z" transform="translate(-33.03 -266.74)"/>
          <path class="cls-34" d="M108.14,308.91h-6a.29.29,0,0,1,0-.58h6a.29.29,0,1,1,0,.58Z" transform="translate(-33.03 -266.74)"/>
          <path class="cls-34" d="M107.38,303.93h-4.44a.29.29,0,0,1,0-.58h4.44a.29.29,0,0,1,0,.58Z" transform="translate(-33.03 -266.74)"/>
          <path class="cls-34" d="M108.14,305.23h-6a.29.29,0,0,1,0-.57h6a.29.29,0,1,1,0,.57Z" transform="translate(-33.03 -266.74)"/>
          <path class="cls-34" d="M108.14,310.46h-6a.29.29,0,0,1,0-.58h6a.29.29,0,1,1,0,.58Z" transform="translate(-33.03 -266.74)"/>
          <path class="cls-34" d="M108.14,311.72h-6a.29.29,0,0,1,0-.58h6a.29.29,0,1,1,0,.58Z" transform="translate(-33.03 -266.74)"/>
        </g>
      </g>
      <path id="boca" class="cls-35" d="M107.88,324.84c6,.76,16.7,1.35,16.7,1.35s-9.49,1-15.67-.1S101.45,324,107.88,324.84Z" transform="translate(-33.03 -266.74)"/>
    </g>
  </g>
</svg>
