<svg xmlns="http://www.w3.org/2000/svg" xmlns:xlink="http://www.w3.org/1999/xlink" width="1024" height="620" viewBox="0 0 1024 620">
  <defs>
    <style>
      .cls-1 {
        isolation: isolate;
      }

      .cls-2 {
        fill: none;
      }

      .cls-3, .cls-4 {
        fill: #262261;
      }

      .cls-3, .cls-37 {
        opacity: 0.1;
      }

      .cls-4 {
        opacity: 0.2;
      }

      .cls-5 {
        fill: #e3ebfc;
      }

      .cls-6 {
        fill: #ccddfa;
      }

      .cls-7 {
        fill: #fafbff;
      }

      .cls-8 {
        fill: #80a7f6;
      }

      .cls-9 {
        fill: #9fbcfb;
      }

      .cls-10 {
        fill: #e2eafb;
      }

      .cls-11 {
        fill: #f9faff;
      }

      .cls-12 {
        fill: #b7cff8;
      }

      .cls-13, .cls-33, .cls-35 {
        fill: #207bff;
      }

      .cls-13, .cls-41 {
        opacity: 0.4;
      }

      .cls-14 {
        fill: #004bff;
        opacity: 0.5;
        mix-blend-mode: multiply;
      }

      .cls-15 {
        fill: #c4d7f9;
      }

      .cls-16 {
        fill: url(#_ÂÁ_Ï_ÌÌ_È_ËÂÌÚ_30);
      }

      .cls-17 {
        fill: #4aeaff;
      }

      .cls-18 {
        fill: #80a6f5;
      }

      .cls-19, .cls-34 {
        fill: #fff;
      }

      .cls-20 {
        fill: #bdf8ff;
      }

      .cls-21 {
        fill: url(#linear-gradient);
      }

      .cls-22 {
        fill: #eb1c24;
      }

      .cls-23 {
        fill: url(#linear-gradient-2);
      }

      .cls-24 {
        fill: url(#linear-gradient-3);
      }

      .cls-25 {
        fill: url(#linear-gradient-4);
      }

      .cls-26 {
        fill: url(#linear-gradient-5);
      }

      .cls-27 {
        fill: url(#linear-gradient-6);
      }

      .cls-28 {
        fill: url(#linear-gradient-7);
      }

      .cls-29 {
        fill: url(#_ÂÁ_Ï_ÌÌ_È_ËÂÌÚ_14);
      }

      .cls-30 {
        fill: url(#_ÂÁ_Ï_ÌÌ_È_ËÂÌÚ_18);
      }

      .cls-31 {
        fill: #9ebbfa;
      }

      .cls-32 {
        fill: #4880f7;
      }

      .cls-34 {
        opacity: 0.8;
      }

      .cls-35 {
        opacity: 0.72;
      }

      .cls-36, .cls-37, .cls-38, .cls-39 {
        fill: #3ae5fa;
      }

      .cls-36 {
        opacity: 0.7;
      }

      .cls-38 {
        opacity: 0.3;
      }

      .cls-40 {
        fill: #93b4fb;
      }

      .cls-41 {
        mix-blend-mode: lighten;
        fill: url(#radial-gradient);
      }

      .cls-42 {
        fill: #00ffda;
      }

      .cls-43 {
        fill: #7fd1ca;
      }

      .cls-44 {
        fill: #1e1e1e;
      }
    </style>
    <radialGradient id="_ÂÁ_Ï_ÌÌ_È_ËÂÌÚ_30" data-name="¡ÂÁ˚ÏˇÌÌ˚È „‡‰ËÂÌÚ 30" cx="2971.7" cy="458.4" r="5.88" gradientTransform="translate(-2469.07 48.76) scale(0.86 0.9)" gradientUnits="userSpaceOnUse">
      <stop offset="0" stop-color="#4aeaff"/>
      <stop offset="1" stop-color="#00709d"/>
    </radialGradient>
    <linearGradient id="linear-gradient" x1="1628.84" y1="368.17" x2="1628.84" y2="397.29" gradientTransform="matrix(-1, 0, 0, 1, 1727.34, 0)" gradientUnits="userSpaceOnUse">
      <stop offset="0.02" stop-color="#dc2a21"/>
      <stop offset="0.06" stop-color="#c7201b"/>
      <stop offset="0.1" stop-color="#b61717"/>
      <stop offset="0.15" stop-color="#ab1113"/>
      <stop offset="0.22" stop-color="#a40e12"/>
      <stop offset="0.43" stop-color="#a20d11"/>
      <stop offset="0.79" stop-color="#6b0006"/>
    </linearGradient>
    <linearGradient id="linear-gradient-2" x1="1620.71" y1="369.47" x2="1620.71" y2="390.37" gradientTransform="matrix(-1, 0, 0, 1, 1727.34, 0)" gradientUnits="userSpaceOnUse">
      <stop offset="0" stop-color="#ac1a27"/>
      <stop offset="0.08" stop-color="#9e151f"/>
      <stop offset="0.28" stop-color="#7d0a0e"/>
      <stop offset="0.44" stop-color="#680304"/>
      <stop offset="0.56" stop-color="#610000"/>
      <stop offset="0.73" stop-color="#520000"/>
      <stop offset="1" stop-color="#3f0000"/>
    </linearGradient>
    <linearGradient id="linear-gradient-3" x1="-658.53" y1="380.23" x2="-645.61" y2="380.23" gradientTransform="translate(734.8)" gradientUnits="userSpaceOnUse">
      <stop offset="0" stop-color="#bd1349"/>
      <stop offset="0.24" stop-color="#bd124e"/>
      <stop offset="0.25" stop-color="#bd124e"/>
      <stop offset="1" stop-color="#7a0025"/>
    </linearGradient>
    <linearGradient id="linear-gradient-4" x1="-662.93" y1="387.18" x2="-645.55" y2="387.18" gradientTransform="translate(734.8)" gradientUnits="userSpaceOnUse">
      <stop offset="0" stop-color="#282880"/>
      <stop offset="0.27" stop-color="#26257c"/>
      <stop offset="0.56" stop-color="#1f1b6f"/>
      <stop offset="0.85" stop-color="#140b5a"/>
      <stop offset="1" stop-color="#0d004c"/>
    </linearGradient>
    <linearGradient id="linear-gradient-5" x1="-658.82" y1="387.18" x2="-645.61" y2="387.18" xlink:href="#linear-gradient-3"/>
    <linearGradient id="linear-gradient-6" x1="-656.14" y1="380.17" x2="-639.54" y2="380.17" xlink:href="#linear-gradient-4"/>
    <linearGradient id="linear-gradient-7" x1="1633.39" y1="386.49" x2="1633.39" y2="376.59" gradientTransform="matrix(-1, 0, 0, 1, 1727.34, 0)" gradientUnits="userSpaceOnUse">
      <stop offset="0" stop-color="#ec2d24"/>
      <stop offset="0.12" stop-color="#ec2824"/>
      <stop offset="0.25" stop-color="#eb1c24"/>
      <stop offset="1" stop-color="#74020d"/>
    </linearGradient>
    <linearGradient id="_ÂÁ_Ï_ÌÌ_È_ËÂÌÚ_14" data-name="¡ÂÁ˚ÏˇÌÌ˚È „‡‰ËÂÌÚ 14" x1="2916.65" y1="443.27" x2="2973.14" y2="443.27" gradientTransform="translate(-2873.6 14.89) rotate(-2.88)" gradientUnits="userSpaceOnUse">
      <stop offset="0" stop-color="#003a6b"/>
      <stop offset="1" stop-color="#00204c"/>
    </linearGradient>
    <linearGradient id="_ÂÁ_Ï_ÌÌ_È_ËÂÌÚ_18" data-name="¡ÂÁ˚ÏˇÌÌ˚È „‡‰ËÂÌÚ 18" x1="2939.95" y1="285.35" x2="2969.23" y2="334.69" gradientTransform="translate(-2863.05)" gradientUnits="userSpaceOnUse">
      <stop offset="0" stop-color="#cad6e0"/>
      <stop offset="0.05" stop-color="#aec0d0"/>
      <stop offset="0.15" stop-color="#7998b1"/>
      <stop offset="0.25" stop-color="#4e7698"/>
      <stop offset="0.35" stop-color="#2c5c84"/>
      <stop offset="0.44" stop-color="#144976"/>
      <stop offset="0.53" stop-color="#053e6e"/>
      <stop offset="0.6" stop-color="#003a6b"/>
      <stop offset="1" stop-color="#00204c"/>
    </linearGradient>
    <radialGradient id="radial-gradient" cx="2950.08" cy="470.65" r="13.06" gradientTransform="matrix(0.64, 0.02, -0.02, 0.74, -1846.52, -25.13)" gradientUnits="userSpaceOnUse">
      <stop offset="0" stop-color="#00ddde" stop-opacity="0.52"/>
      <stop offset="0.09" stop-color="#2de6e7" stop-opacity="0.65"/>
      <stop offset="0.2" stop-color="#63f1f1" stop-opacity="0.8"/>
      <stop offset="0.3" stop-color="#8af8f9" stop-opacity="0.91"/>
      <stop offset="0.38" stop-color="#a2fdfd" stop-opacity="0.98"/>
      <stop offset="0.43" stop-color="#abffff"/>
      <stop offset="0.46" stop-color="#9ffcfd"/>
      <stop offset="0.51" stop-color="#7ff6f6"/>
      <stop offset="0.58" stop-color="#4aebeb"/>
      <stop offset="0.66" stop-color="#03dcdd"/>
      <stop offset="0.66" stop-color="#00dbdc"/>
      <stop offset="0.69" stop-color="#08dcdd" stop-opacity="0.97"/>
      <stop offset="0.74" stop-color="#1fdfe0" stop-opacity="0.88"/>
      <stop offset="0.8" stop-color="#44e5e5" stop-opacity="0.73"/>
      <stop offset="0.87" stop-color="#78eced" stop-opacity="0.53"/>
      <stop offset="0.94" stop-color="#baf5f6" stop-opacity="0.27"/>
      <stop offset="1" stop-color="#fff" stop-opacity="0"/>
    </radialGradient>
  </defs>
  <title>robot</title>
  <g class="cls-1">
    <g id="robot">
      <rect id="fondo" class="cls-2" width="1024" height="620"/>
      <g id="sombra">
        <ellipse class="cls-3" cx="83.04" cy="497.4" rx="39.9" ry="9.32"/>
        <ellipse class="cls-4" cx="83.04" cy="497.4" rx="31.08" ry="5.93"/>
        <ellipse class="cls-4" cx="83.04" cy="497.4" rx="18.71" ry="3.57"/>
      </g>
      <g id="brazoIzquierdo">
        <g>
          <path class="cls-5" d="M146.49,398c-6.24-30.86-18.34-44-21.18-46.75a2.38,2.38,0,0,0-1.51-.69c-2.11-.14-7.55.43-12.89,8.64-3.69,5.67-2.41,14.83-2.08,15.28,3.47,4.62,25.25,33.76,31,43.74C146.16,429.1,149.16,411.23,146.49,398Z" transform="translate(-2.2 1.16)"/>
          <path class="cls-6" d="M110.88,359.27a24.91,24.91,0,0,1,5.07-5.86,29.58,29.58,0,0,0-1.74,2.41c-4.65,7.15-2.41,12-.78,15.31C119.29,383,135.92,405,140.2,418.9l-.37-.61c-5.78-10-27.56-39.12-31-43.74C108.47,374.1,107.19,364.94,110.88,359.27Z" transform="translate(-2.2 1.16)"/>
          <path class="cls-7" d="M127.85,362.14c14,10.45,18,47.64,18,47.64s-9.23-25.6-16.24-36.28S123.09,358.57,127.85,362.14Z" transform="translate(-2.2 1.16)"/>
          <path class="cls-6" d="M136.38,412.28a40.06,40.06,0,0,1,.16,5.37,8.93,8.93,0,0,1-2.36,2.61c-.17-2.24-2.11-13.91-4.18-16.87C129.27,402.34,136.31,410.12,136.38,412.28Z" transform="translate(-2.2 1.16)"/>
          <path class="cls-8" d="M129.75,403.76a.34.34,0,0,0,.27-.21c2.63-5.91,8.93-10.89,15.46-8.47a.34.34,0,0,0,.44-.21.36.36,0,0,0-.21-.46c-6.91-2.57-13.56,2.64-16.32,8.84a.39.39,0,0,0,.17.48A.42.42,0,0,0,129.75,403.76Z" transform="translate(-2.2 1.16)"/>
        </g>
        <path class="cls-9" d="M125.81,365c-.81,9.64-4.69,17.16-8.67,16.8s-6.56-8.46-5.75-18.1,4.67-17,8.66-16.79C125.81,347.22,126.61,355.37,125.81,365Z" transform="translate(-2.2 1.16)"/>
      </g>
      <g id="torso">
        <path class="cls-10" d="M44.92,346.63c-4-.27-17.85,14.24-13.66,28.32S59.13,436,64.5,452.47s8.58,20.5,16.21,22,19.15,2,32.52-27,15.42-61.66,16-77.15-.95-21.65-6.16-23.42C111,342.77,44.92,346.63,44.92,346.63Z" transform="translate(-2.2 1.16)"/>
        <path class="cls-11" d="M107.84,444c10.36-30.55,9.11-63.39,8.15-79-.64-10.34-1.81-16.45-4.1-19.72-11-.65-27.17-.37-40.83.09,7.31,20.06,18.11,53.84,19.9,88.63,1.2,23.22-1.88,34.56-6.14,40.37C91.77,473,100.13,466.77,107.84,444Z" transform="translate(-2.2 1.16)"/>
        <path class="cls-12" d="M124.26,348.18c0,3-20.44,7.69-41.06,7.72s-41.09-4.57-41.09-7.58S62.56,345,83.18,345,124.25,345.17,124.26,348.18Z" transform="translate(-2.2 1.16)"/>
        <path class="cls-13" d="M111.79,348.8c0,2.08-14.08,5.31-28.29,5.34S55.2,351,55.2,348.89s14.09-2.27,28.29-2.29S111.79,346.72,111.79,348.8Z" transform="translate(-2.2 1.16)"/>
        <path class="cls-14" d="M103.15,349.88c0,.79-9.71,1.8-19.18,1.82s-18.52-1-18.52-1.76,9-1.11,18.52-1.13S103.14,349.08,103.15,349.88Z" transform="translate(-2.2 1.16)"/>
        <path class="cls-15" d="M73,455.87c-2.19-12.31-5.46-52.57-13.23-81-3.9-14.24-13.08-24.29-22-21.11C31.48,356,29,367.34,31.26,375,35.44,389,59.13,436,64.5,452.47s8.58,20.5,16.21,22c3.92.76,8.89,1.27,14.6-2.37C87.58,473.36,76.61,476.26,73,455.87Z" transform="translate(-2.2 1.16)"/>
        <path class="cls-16" d="M100.28,461.87a13.7,13.7,0,0,1-4.7.81,21.15,21.15,0,0,1-5.26-.4,2.16,2.16,0,0,1-1.83-2h0a2,2,0,0,1,1.84-2s4,.47,5,.46a33.94,33.94,0,0,0,5.1-.5c1,0,2,.31,1.66,1.83A2.57,2.57,0,0,1,100.28,461.87Z" transform="translate(-2.2 1.16)"/>
        <path class="cls-17" d="M99.63,461.64a13.91,13.91,0,0,1-4.06.58,21.5,21.5,0,0,1-4.55-.29c-.84-.18-1.58-.65-1.58-1.45h0A1.51,1.51,0,0,1,91,459s3.49.33,4.35.33a36.34,36.34,0,0,0,4.41-.36c.88,0,1.7.22,1.43,1.3C101.1,460.81,100.69,461.3,99.63,461.64Z" transform="translate(-2.2 1.16)"/>
        <path class="cls-18" d="M94.44,452.58c-9.29,0-20.68-2.09-33-7.35a.35.35,0,0,1-.18-.45.33.33,0,0,1,.43-.18c22.9,9.79,42.6,8.55,51.21,3.25a.32.32,0,0,1,.45.12.34.34,0,0,1-.11.47C109.17,451,102.62,452.58,94.44,452.58Z" transform="translate(-2.2 1.16)"/>
        <path class="cls-19" d="M94.2,451.82c-9.29,0-20.68-2.1-33-7.35a.35.35,0,0,1-.18-.45.32.32,0,0,1,.43-.19c22.9,9.8,42.6,8.55,51.21,3.25a.33.33,0,0,1,.45.12.35.35,0,0,1-.11.47C108.93,450.19,102.38,451.82,94.2,451.82Z" transform="translate(-2.2 1.16)"/>
        <path class="cls-11" d="M127.53,354.57c1.75,37.23-3.41,54.85-3.41,54.85s4.93-28.13.39-55.32C123.88,350.37,127.25,348.75,127.53,354.57Z" transform="translate(-2.2 1.16)"/>
        <path class="cls-19" d="M45.26,352s4.07,2.55,19,4,34.48,1.16,34.48,1.16-18.06,2.49-34.55.64S45.26,352,45.26,352Z" transform="translate(-2.2 1.16)"/>
        <path class="cls-20" d="M97.76,459.24c-.72.07-1.56.12-2.38.13S91,459,91,459a1.69,1.69,0,0,0-.33,0l1.6,3.05a31.36,31.36,0,0,0,3.27.1,14.25,14.25,0,0,0,3.78-.5Z" transform="translate(-2.2 1.16)"/>
        <g>
          <path class="cls-21" d="M108,380.08a13.15,13.15,0,0,0-7.88-12.18,12.43,12.43,0,0,0-1.4.19A12,12,0,0,0,89,379.62c0,.13,0,.26,0,.4v.13h0a7.35,7.35,0,0,1,7.21-7.49,6.79,6.79,0,0,1,2.35.41c-.71-.26-.68-.27.05,0a6.65,6.65,0,0,1,2.43-.45c4,0,6.88,3.38,6.88,7.43v.07c0,4.05-2.79,7.36-6.82,7.36a6.71,6.71,0,0,1-2.22-.37,6.81,6.81,0,0,1-2.67.54A7.36,7.36,0,0,1,89,380.3a11.85,11.85,0,0,0,9.61,11.78,14.05,14.05,0,0,0,1.47.19A13.15,13.15,0,0,0,108,380.08Z" transform="translate(-2.2 1.16)"/>
          <path class="cls-22" d="M103.43,380.17a7.5,7.5,0,0,1-4.54,7,6.71,6.71,0,0,0,2.22.37c4,0,6.82-3.31,6.82-7.36v-.07c0-4.05-2.86-7.43-6.88-7.43a6.65,6.65,0,0,0-2.43.45c-.73-.29-.76-.28-.05,0A7.49,7.49,0,0,1,103.43,380.17Z" transform="translate(-2.2 1.16)"/>
          <path class="cls-23" d="M101.11,367.86c-.34,0-.67,0-1,0a13.36,13.36,0,0,1,0,24.37c.32,0,.64,0,1,0a12,12,0,0,0,12.11-12.23V380A11.87,11.87,0,0,0,101.11,367.86Z" transform="translate(-2.2 1.16)"/>
          <path class="cls-24" d="M89,380.17v0Z" transform="translate(-2.2 1.16)"/>
          <path class="cls-25" d="M98.7,387.07c-.76.28-.75.29,0,0Z" transform="translate(-2.2 1.16)"/>
          <path class="cls-26" d="M98.7,387.07c-.76.28-.75.29,0,0Z" transform="translate(-2.2 1.16)"/>
          <path class="cls-27" d="M96.22,387.68a6.81,6.81,0,0,0,2.67-.54l-.19-.07c-.75.29-.76.28,0,0a7.31,7.31,0,0,1-4.65-7V380a7.19,7.19,0,0,1,4.56-6.92l0,0a6.79,6.79,0,0,0-2.35-.41A7.35,7.35,0,0,0,89,380.16v.14A7.36,7.36,0,0,0,96.22,387.68Z" transform="translate(-2.2 1.16)"/>
          <path class="cls-28" d="M96.22,387.68a6.81,6.81,0,0,0,2.67-.54l-.19-.07c-.75.29-.76.28,0,0a7.31,7.31,0,0,1-4.65-7V380a7.19,7.19,0,0,1,4.56-6.92l0,0a6.79,6.79,0,0,0-2.35-.41A7.35,7.35,0,0,0,89,380.16v.14A7.36,7.36,0,0,0,96.22,387.68Z" transform="translate(-2.2 1.16)"/>
        </g>
      </g>
      <g id="cabeza">
        <g>
          <path class="cls-10" d="M48.05,335.18c9.38,12.57,38.11,10.18,46.11,9.38s21.57-2.24,26.45-17.58,2.44-38.73-11-50.89-49.37-10.18-61.57,6.21S44.79,330.82,48.05,335.18Z" transform="translate(-2.2 1.16)"/>
          <path class="cls-19" d="M50.52,285.65c.54-.2,11.63-9.17,31.72-11,6.91-.61,17.69,0,24.61,1-.69-.76-10.62-6.73-31.12-4.51A39.94,39.94,0,0,0,50.52,285.65Z" transform="translate(-2.2 1.16)"/>
          <path class="cls-11" d="M87.05,281.94c-6.47.1-13,.58-19,3l-.14.06c6.33,13.95,6.85,32.12,3.14,45.11a27.76,27.76,0,0,1-5.38,10.53c11.18,2.05,23.68,1,28.54.5,5.29-.52,13-1.34,19.06-6.27A33.8,33.8,0,0,0,115,330.1c3.75-13.16,3.17-31.64-3.4-45.65A100.1,100.1,0,0,0,87.05,281.94Z" transform="translate(-2.2 1.16)"/>
          <path class="cls-29" d="M63.66,294.32c3.73-5.28,13.89-6.66,26.62-7.45,16.43-1,22,2.08,23.66,4.05s4.59,11.8,4,21.34-.73,12.41-4.5,14.78-14.67,4.7-21.71,4.88c-13.34.33-20.06-.34-24.52-3.07C64.9,327.46,62,320,61.55,310.7S61.73,297.05,63.66,294.32Z" transform="translate(-2.2 1.16)"/>
          <path class="cls-30" d="M89.82,288.35c-7.91.47-14.78,1.18-19.61,3,4.23,12.22,4.25,26.71,1.11,37.43,0,.12-.07.24-.11.36,4.22,1.27,10.28,1.57,20,1.33,6.76-.16,17.21-2.33,20.83-4.55a6.64,6.64,0,0,0,2.83-3.08,66.25,66.25,0,0,0-2.09-30.36,2.78,2.78,0,0,0-.23-.31C110.91,290.29,105.58,287.39,89.82,288.35Z" transform="translate(-2.2 1.16)"/>
          <path class="cls-31" d="M55,303.09c-.22,5.18-3,9.26-6.22,9.11s-5.63-4.47-5.41-9.65,3-9.26,6.21-9.12S55.25,297.9,55,303.09Z" transform="translate(-2.2 1.16)"/>
          <path class="cls-32" d="M52.48,302.7c-.15,3.64-1.85,6.51-3.8,6.42s-3.4-3.11-3.24-6.75,1.86-6.51,3.8-6.42S52.64,299.06,52.48,302.7Z" transform="translate(-2.2 1.16)"/>
          <path class="cls-33" d="M52.54,303h0a13.1,13.1,0,0,0-1.47-6.9c-1.08-1.93-2.59-3-4.26-3.11-3.37-.15-6.33,4.08-6.56,9.44s2.34,9.86,5.73,10h.18C49.47,312.42,52.31,308.24,52.54,303Zm-5.76-9.32c1.44.06,2.76,1.05,3.72,2.77a12.37,12.37,0,0,1,1.38,6.52c-.21,5-2.85,8.92-5.87,8.79s-5.31-4.31-5.1-9.3,2.76-8.79,5.72-8.79Z" transform="translate(-2.2 1.16)"/>
          <path class="cls-11" d="M46.38,315.1l2.35.09s1,10.18,3.83,16.16,6.83,7.9,6.83,7.9-6-2-9.65-9.79C47.13,323.88,46.38,315.1,46.38,315.1Z" transform="translate(-2.2 1.16)"/>
          <path class="cls-34" d="M65.88,295.1h0a1.22,1.22,0,0,0,1.8.44c1.15-.81,2.89-2,3.9-2.6C73.16,292.05,81,289,81,289A34.94,34.94,0,0,0,66.47,293,1.58,1.58,0,0,0,65.88,295.1Z" transform="translate(-2.2 1.16)"/>
        </g>
        <path class="cls-35" d="M59.71,301.89c0,1.61-.71,2.92-1.6,2.92s-1.61-1.31-1.61-2.92.72-2.91,1.61-2.91S59.71,300.29,59.71,301.89Z" transform="translate(-2.2 1.16)"/>
      </g>
      <path id="boca" class="cls-36" d="M86.8,321.24c5.11.68,14.28,1.21,14.28,1.21s-8.11.86-13.4-.09S81.3,320.52,86.8,321.24Z" transform="translate(-2.2 1.16)"/>
      <g id="ojos">
        <rect class="cls-37" x="94.63" y="299.1" width="11.33" height="15.4" rx="3.93"/>
        <rect class="cls-37" x="95.82" y="300.76" width="8.95" height="12.09" rx="3.93"/>
        <rect class="cls-38" x="97.32" y="302.31" width="6.21" height="9.41" rx="2.44"/>
        <path class="cls-39" d="M105.08,304.78H100a.25.25,0,0,1-.24-.26.25.25,0,0,1,.24-.25h5.11a.25.25,0,0,1,.24.25A.25.25,0,0,1,105.08,304.78Z" transform="translate(-2.2 1.16)"/>
        <path class="cls-39" d="M105.08,305.9H100a.25.25,0,0,1-.24-.26.25.25,0,0,1,.24-.25h5.11a.25.25,0,0,1,.24.25A.25.25,0,0,1,105.08,305.9Z" transform="translate(-2.2 1.16)"/>
        <path class="cls-39" d="M105.08,307.06H100a.25.25,0,0,1-.24-.25.25.25,0,0,1,.24-.26h5.11a.25.25,0,0,1,.24.26A.25.25,0,0,1,105.08,307.06Z" transform="translate(-2.2 1.16)"/>
        <path class="cls-39" d="M104.42,302.63h-3.8a.26.26,0,0,1,0-.52h3.8a.26.26,0,0,1,0,.52Z" transform="translate(-2.2 1.16)"/>
        <path class="cls-39" d="M105.08,303.79H100a.25.25,0,0,1-.24-.25.25.25,0,0,1,.24-.26h5.11a.25.25,0,0,1,.24.26A.25.25,0,0,1,105.08,303.79Z" transform="translate(-2.2 1.16)"/>
        <path class="cls-39" d="M105.08,308.45H100a.26.26,0,0,1,0-.52h5.11a.26.26,0,0,1,0,.52Z" transform="translate(-2.2 1.16)"/>
        <path class="cls-39" d="M105.08,309.57H100a.26.26,0,0,1,0-.52h5.11a.26.26,0,0,1,0,.52Z" transform="translate(-2.2 1.16)"/>
        <g>
          <rect class="cls-37" x="76.57" y="299.1" width="11.33" height="15.4" rx="3.93"/>
          <rect class="cls-37" x="77.76" y="300.76" width="8.95" height="12.09" rx="3.93"/>
          <rect class="cls-38" x="79.27" y="302.31" width="6.21" height="9.41" rx="2.44"/>
          <path class="cls-39" d="M87,304.78h-5.1a.26.26,0,0,1-.25-.26.25.25,0,0,1,.25-.25H87a.25.25,0,0,1,.25.25A.26.26,0,0,1,87,304.78Z" transform="translate(-2.2 1.16)"/>
          <path class="cls-39" d="M87,305.9h-5.1a.26.26,0,0,1,0-.51H87a.26.26,0,0,1,0,.51Z" transform="translate(-2.2 1.16)"/>
          <path class="cls-39" d="M87,307.06h-5.1a.25.25,0,0,1-.25-.25.26.26,0,0,1,.25-.26H87a.26.26,0,0,1,.25.26A.25.25,0,0,1,87,307.06Z" transform="translate(-2.2 1.16)"/>
          <path class="cls-39" d="M86.37,302.63h-3.8a.26.26,0,0,1,0-.52h3.8a.26.26,0,0,1,0,.52Z" transform="translate(-2.2 1.16)"/>
          <path class="cls-39" d="M87,303.79h-5.1a.26.26,0,0,1,0-.51H87a.26.26,0,0,1,0,.51Z" transform="translate(-2.2 1.16)"/>
          <path class="cls-39" d="M87,308.45h-5.1a.26.26,0,0,1,0-.52H87a.26.26,0,0,1,0,.52Z" transform="translate(-2.2 1.16)"/>
          <path class="cls-39" d="M87,309.57h-5.1a.26.26,0,0,1,0-.52H87a.26.26,0,0,1,0,.52Z" transform="translate(-2.2 1.16)"/>
        </g>
      </g>
      <g id="brazoDerecho">
        <path class="cls-40" d="M54.89,371.49c3,10.77.62,20.93-5.25,22.69s-13-5.56-16-16.33-.61-20.93,5.26-22.69S51.92,360.72,54.89,371.49Z" transform="translate(-2.2 1.16)"/>
        <path class="cls-33" d="M47.75,391.52a.39.39,0,0,1,0-.78,4.28,4.28,0,0,0,3.45-2.52c2.45-4.36,2-12.6-1.09-19.17-3.66-7.85-9.52-11-12.85-9.38a.36.36,0,0,1-.49-.19.38.38,0,0,1,.18-.51c4.18-2,10.38,2.36,13.83,9.74,3.17,6.78,3.63,15.34,1.07,19.91a5.07,5.07,0,0,1-4,2.9Z" transform="translate(-2.2 1.16)"/>
        <g>
          <path class="cls-5" d="M15.59,411.68c2.46-31.44,12.88-46.07,15.37-49.16a2.55,2.55,0,0,1,1.42-.88c2.08-.41,7.54-.56,13.83,6.89,4.35,5.14,4.18,14.4,3.9,14.89-2.88,5-21,36.79-25.51,47.44C19.66,442.45,14.53,425.11,15.59,411.68Z" transform="translate(-2.2 1.16)"/>
          <path class="cls-6" d="M46.25,368.56a25,25,0,0,0-5.74-5.15q1,1,2,2.16c5.48,6.49,3.84,11.59,2.62,15.09-4.38,12.55-18.23,36.55-20.8,50.89l.3-.66c4.53-10.65,22.63-42.4,25.51-47.44C50.43,383,50.59,373.7,46.25,368.56Z" transform="translate(-2.2 1.16)"/>
          <path class="cls-7" d="M29.75,373.62c-12.58,12.19-12.13,49.62-12.13,49.62s6.07-26.6,11.74-38.11S34.05,369.46,29.75,373.62Z" transform="translate(-2.2 1.16)"/>
          <path class="cls-6" d="M27.33,424.48a41.32,41.32,0,0,0,.49,5.35,8.81,8.81,0,0,0,2.66,2.28c-.1-2.25.42-14.08,2.11-17.29C33.2,413.69,27.15,422.33,27.33,424.48Z" transform="translate(-2.2 1.16)"/>
          <path class="cls-8" d="M32.88,415.16a.35.35,0,0,1-.29-.17c-3.31-5.52-10.17-9.64-16.36-6.38a.33.33,0,0,1-.46-.16.36.36,0,0,1,.15-.48c6.55-3.45,13.78.85,17.26,6.64a.38.38,0,0,1-.11.5A.41.41,0,0,1,32.88,415.16Z" transform="translate(-2.2 1.16)"/>
        </g>
        <g>
          <path class="cls-41" d="M37.06,382.52c-.16,5.33-4,9.53-8.63,9.38s-8.22-4.58-8.07-9.91,4-9.52,8.63-9.38S37.22,377.19,37.06,382.52Z" transform="translate(-2.2 1.16)"/>
          <g>
            <path class="cls-42" d="M23,383.08a8.63,8.63,0,0,0,1.84,5.09,17.52,17.52,0,0,0,2,2.41s5.32-1.42,6.79-4.6c.3-.67,1.7-4.83,1.7-4.83s.42-1-.37-1.47a24.05,24.05,0,0,1-2.7-1.59,7.56,7.56,0,0,0-1.8-1.21c-.51-.19-.73-.08-1.67,0a26.6,26.6,0,0,1-3.17-.08c-.94,0-1.05,1.09-1.05,1.09S23.05,382.33,23,383.08Z" transform="translate(-2.2 1.16)"/>
            <path class="cls-43" d="M24.58,377.88s-1.53,4.45-1.58,5.2c-.23,3.59,3.85,7.5,3.85,7.5h0s5.32-1.42,6.79-4.6c.3-.67,1.7-4.83,1.7-4.83s.42-1-.37-1.47a24.05,24.05,0,0,1-2.7-1.59,7.56,7.56,0,0,0-1.8-1.21c-.51-.19-.73-.08-1.67,0a26.6,26.6,0,0,1-3.17-.08C24.69,376.76,24.58,377.88,24.58,377.88Zm.84-.18.78,0a8.61,8.61,0,0,0,2.44,0c1.69-.33,2.21.56,3,1.16a15.75,15.75,0,0,0,2.07,1.26l.68.37a.79.79,0,0,1,0,.2l0,.06c-.54,1.59-1.46,4.29-1.67,4.74a7.43,7.43,0,0,1-3.47,3,16.94,16.94,0,0,1-2.06.84,16.55,16.55,0,0,1-1.43-1.8A8.36,8.36,0,0,1,24.06,383a34.61,34.61,0,0,1,1.28-5Z" transform="translate(-2.2 1.16)"/>
            <path class="cls-44" d="M23,383.08c-.13,2.08,1.18,4.27,2.31,5.74a8.85,8.85,0,0,1-2-5.26c.06-.75,1.59-5.19,1.59-5.19s.11-1.13,1-1.1a26.83,26.83,0,0,0,3.18.08c.93-.07,1.16-.18,1.67,0a7.56,7.56,0,0,1,1.8,1.21,24.05,24.05,0,0,0,2.7,1.59l.07,0a.9.9,0,0,0-.43-.53,25.68,25.68,0,0,1-2.7-1.59,7.56,7.56,0,0,0-1.8-1.21c-.51-.19-.73-.08-1.67,0a28.89,28.89,0,0,1-3.17-.08c-.94,0-1.05,1.09-1.05,1.09S23.05,382.33,23,383.08Z" transform="translate(-2.2 1.16)"/>
            <path class="cls-43" d="M28.31,383.18a.33.33,0,0,0,.08.32l-.07.27a.07.07,0,0,0,.05.08l.2.06a.08.08,0,0,0,.09-.05l.06-.26a.36.36,0,0,0,.23-.25.34.34,0,0,0-.24-.42A.32.32,0,0,0,28.31,383.18Z" transform="translate(-2.2 1.16)"/>
            <path class="cls-43" d="M28.31,381.4l-.13.51,1.48.4.13-.51a.8.8,0,0,0-.55-1A.76.76,0,0,0,28.31,381.4Z" transform="translate(-2.2 1.16)"/>
            <path class="cls-43" d="M25.64,379.12s-.93,3.28-1,3.84c-.2,2.66,2.65,5.73,2.65,5.73h0s3.78-1.1,4.85-3.48c.23-.5,1.26-3.62,1.26-3.62s.31-.76-.25-1.09a16.6,16.6,0,0,1-1.9-1.15c-.32-.26-.62-.46-.86-.62a4.81,4.81,0,0,0-.54-.31h0a2,2,0,0,0-1.11-.09,16.34,16.34,0,0,1-2.23,0C25.86,378.3,25.64,379.12,25.64,379.12ZM27,382a.42.42,0,0,1,.51-.31l.11,0,.12-.51a1.37,1.37,0,0,1,1.67-1,1.42,1.42,0,0,1,1,1.74l-.13.51.11,0a.43.43,0,0,1,.29.53l-.5,2a.41.41,0,0,1-.5.31l-2.85-.78a.43.43,0,0,1-.29-.53Z" transform="translate(-2.2 1.16)"/>
            <path class="cls-44" d="M24.67,383c-.14,1.91,1.29,4,2.1,5.08-.81-1.14-1.87-3-1.74-4.6,0-.56,1-3.84,1-3.84s.23-.82.89-.81a16.34,16.34,0,0,0,2.23,0,2,2,0,0,1,1.11.09h0a3.77,3.77,0,0,1,.54.3c.24.16.54.37.86.62A14.55,14.55,0,0,0,33.5,381a.64.64,0,0,0-.32-.45,16.23,16.23,0,0,1-1.9-1.16,10.43,10.43,0,0,0-.86-.61,4.81,4.81,0,0,0-.54-.31h0a2,2,0,0,0-1.1-.09,16.46,16.46,0,0,1-2.24,0c-.66,0-.88.81-.88.81S24.71,382.4,24.67,383Z" transform="translate(-2.2 1.16)"/>
          </g>
        </g>
      </g>
    </g>
  </g>
</svg>
