<svg xmlns="http://www.w3.org/2000/svg" xmlns:xlink="http://www.w3.org/1999/xlink" width="1024" height="620" viewBox="0 0 1024 620">
  <defs>
    <style>
      .cls-1 {
        isolation: isolate;
      }

      .cls-2 {
        fill: none;
      }

      .cls-3, .cls-4 {
        fill: #2e3191;
      }

      .cls-3, .cls-33 {
        opacity: 0.1;
      }

      .cls-4 {
        opacity: 0.2;
      }

      .cls-5 {
        fill: #e2eafb;
      }

      .cls-6 {
        fill: #cbdcf9;
      }

      .cls-7 {
        fill: #f9faff;
      }

      .cls-8 {
        fill: #80a6f5;
      }

      .cls-9 {
        fill: #9ebbfa;
      }

      .cls-10 {
        fill: #b7cff8;
      }

      .cls-11, .cls-27, .cls-32 {
        fill: #207bff;
      }

      .cls-11 {
        opacity: 0.4;
      }

      .cls-12 {
        fill: #004bff;
        opacity: 0.5;
        mix-blend-mode: multiply;
      }

      .cls-13 {
        fill: #c4d7f9;
      }

      .cls-14 {
        fill: url(#_ÂÁ_Ï_ÌÌ_È_ËÂÌÚ_30);
      }

      .cls-15 {
        fill: #4aeaff;
      }

      .cls-16, .cls-31 {
        fill: #fff;
      }

      .cls-17 {
        fill: #bdf8ff;
      }

      .cls-18 {
        fill: url(#linear-gradient);
      }

      .cls-19 {
        fill: #eb1c24;
      }

      .cls-20 {
        fill: url(#linear-gradient-2);
      }

      .cls-21 {
        fill: url(#linear-gradient-3);
      }

      .cls-22 {
        fill: url(#linear-gradient-4);
      }

      .cls-23 {
        fill: url(#linear-gradient-5);
      }

      .cls-24 {
        fill: url(#linear-gradient-6);
      }

      .cls-25 {
        fill: url(#linear-gradient-7);
      }

      .cls-26 {
        fill: #92b3fa;
      }

      .cls-28 {
        fill: url(#_ÂÁ_Ï_ÌÌ_È_ËÂÌÚ_14);
      }

      .cls-29 {
        fill: url(#_ÂÁ_Ï_ÌÌ_È_ËÂÌÚ_18);
      }

      .cls-30 {
        fill: #4880f7;
      }

      .cls-31 {
        opacity: 0.8;
      }

      .cls-32 {
        opacity: 0.72;
      }

      .cls-33, .cls-34, .cls-35, .cls-36 {
        fill: #3ae5fa;
      }

      .cls-34 {
        opacity: 0.3;
      }

      .cls-36 {
        opacity: 0.7;
      }
    </style>
    <radialGradient id="_ÂÁ_Ï_ÌÌ_È_ËÂÌÚ_30" data-name="¡ÂÁ˚ÏˇÌÌ˚È „‡‰ËÂÌÚ 30" cx="3003.72" cy="459.94" r="6.37" gradientTransform="translate(-2863.05)" gradientUnits="userSpaceOnUse">
      <stop offset="0" stop-color="#4aeaff"/>
      <stop offset="1" stop-color="#00709d"/>
    </radialGradient>
    <linearGradient id="linear-gradient" x1="1582.7" y1="348.71" x2="1582.7" y2="383.83" gradientTransform="matrix(-1, 0, 0, 1, 1727.34, 0)" gradientUnits="userSpaceOnUse">
      <stop offset="0.02" stop-color="#dc2a21"/>
      <stop offset="0.06" stop-color="#c7201b"/>
      <stop offset="0.1" stop-color="#b61717"/>
      <stop offset="0.15" stop-color="#ab1113"/>
      <stop offset="0.22" stop-color="#a40e12"/>
      <stop offset="0.43" stop-color="#a20d11"/>
      <stop offset="0.79" stop-color="#6b0006"/>
    </linearGradient>
    <linearGradient id="linear-gradient-2" x1="1572.51" y1="350.28" x2="1572.51" y2="375.48" gradientTransform="matrix(-1, 0, 0, 1, 1727.34, 0)" gradientUnits="userSpaceOnUse">
      <stop offset="0" stop-color="#ac1a27"/>
      <stop offset="0.08" stop-color="#9e151f"/>
      <stop offset="0.28" stop-color="#7d0a0e"/>
      <stop offset="0.44" stop-color="#680304"/>
      <stop offset="0.56" stop-color="#610000"/>
      <stop offset="0.73" stop-color="#520000"/>
      <stop offset="1" stop-color="#3f0000"/>
    </linearGradient>
    <linearGradient id="linear-gradient-3" x1="-618.17" y1="363.25" x2="-601.84" y2="363.25" gradientTransform="translate(734.8)" gradientUnits="userSpaceOnUse">
      <stop offset="0" stop-color="#bd1349"/>
      <stop offset="0.24" stop-color="#bd124e"/>
      <stop offset="0.25" stop-color="#bd124e"/>
      <stop offset="1" stop-color="#7a0025"/>
    </linearGradient>
    <linearGradient id="linear-gradient-4" x1="-623.57" y1="371.63" x2="-601.76" y2="371.63" gradientTransform="translate(734.8)" gradientUnits="userSpaceOnUse">
      <stop offset="0" stop-color="#282880"/>
      <stop offset="0.27" stop-color="#26257c"/>
      <stop offset="0.56" stop-color="#1f1b6f"/>
      <stop offset="0.85" stop-color="#140b5a"/>
      <stop offset="1" stop-color="#0d004c"/>
    </linearGradient>
    <linearGradient id="linear-gradient-5" x1="-618.41" y1="371.63" x2="-601.84" y2="371.63" xlink:href="#linear-gradient-3"/>
    <linearGradient id="linear-gradient-6" x1="-615.05" y1="363.18" x2="-594.22" y2="363.18" xlink:href="#linear-gradient-4"/>
    <linearGradient id="linear-gradient-7" x1="1588.4" y1="370.79" x2="1588.4" y2="358.87" gradientTransform="matrix(-1, 0, 0, 1, 1727.34, 0)" gradientUnits="userSpaceOnUse">
      <stop offset="0" stop-color="#ec2d24"/>
      <stop offset="0.12" stop-color="#ec2824"/>
      <stop offset="0.25" stop-color="#eb1c24"/>
      <stop offset="1" stop-color="#74020d"/>
    </linearGradient>
    <linearGradient id="_ÂÁ_Ï_ÌÌ_È_ËÂÌÚ_14" data-name="¡ÂÁ˚ÏˇÌÌ˚È „‡‰ËÂÌÚ 14" x1="2954.91" y1="414" x2="3025.78" y2="414" gradientTransform="translate(-2873.6 14.89) rotate(-2.88)" gradientUnits="userSpaceOnUse">
      <stop offset="0" stop-color="#003a6b"/>
      <stop offset="1" stop-color="#00204c"/>
    </linearGradient>
    <linearGradient id="_ÂÁ_Ï_ÌÌ_È_ËÂÌÚ_18" data-name="¡ÂÁ˚ÏˇÌÌ˚È „‡‰ËÂÌÚ 18" x1="2981.03" y1="248.37" x2="3016.94" y2="308.86" gradientTransform="translate(-2863.05)" gradientUnits="userSpaceOnUse">
      <stop offset="0" stop-color="#cad6e0"/>
      <stop offset="0.05" stop-color="#aec0d0"/>
      <stop offset="0.15" stop-color="#7998b1"/>
      <stop offset="0.25" stop-color="#4e7698"/>
      <stop offset="0.35" stop-color="#2c5c84"/>
      <stop offset="0.44" stop-color="#144976"/>
      <stop offset="0.53" stop-color="#053e6e"/>
      <stop offset="0.6" stop-color="#003a6b"/>
      <stop offset="1" stop-color="#00204c"/>
    </linearGradient>
  </defs>
  <title>robot</title>
  <g class="cls-1">
    <g id="robot">
      <g id="fondo">
        <rect class="cls-2" width="1024" height="620"/>
      </g>
      <g id="sombra">
        <ellipse class="cls-3" cx="128.91" cy="502.66" rx="51.07" ry="11.47"/>
        <ellipse class="cls-4" cx="128.91" cy="502.66" rx="39.78" ry="7.29"/>
        <ellipse class="cls-4" cx="128.91" cy="502.66" rx="23.95" ry="4.39"/>
      </g>
      <g id="brazoIzquierdo">
        <g>
          <path class="cls-5" d="M213.94,376.36c-10.46-32.3-29.32-43.18-29.32-43.18s-8.1-1.33-15.79,8.71a14.3,14.3,0,0,0-2.29,13.73s32.28,30,40.47,39.81S217.87,388.49,213.94,376.36Z"/>
          <path class="cls-5" d="M213.94,376.36c-10.46-32.3-29.32-43.18-29.32-43.18s-8.1-1.33-15.79,8.71a14.3,14.3,0,0,0-2.29,13.73s32.28,30,40.47,39.81S217.87,388.49,213.94,376.36Z"/>
          <path class="cls-6" d="M211.62,381.57c-7.33-19.08-14-28.19-20.55-33.24-11.24-8.67-19.7-7.14-25-.55a14.86,14.86,0,0,1,2.78-5.89c7.69-10,15.79-8.71,15.79-8.71s18.86,10.88,29.32,43.18c2.72,8.38,2.28,19-1,21.46C213.22,396.92,216,392.93,211.62,381.57Z"/>
          <path class="cls-5" d="M193.39,380.63c1.81,2,2.83,6.16,2.71,8.17a16.16,16.16,0,0,1-1.56,4.86,4.32,4.32,0,0,0,3.94-.79c2-1.53,2.51-4.2,2.9-5.36S193.39,380.63,193.39,380.63Z"/>
          <path class="cls-7" d="M191.06,356.68a114.36,114.36,0,0,0-9.54-8.53c-1.68-1.27,0-2.57,1.51-1.68,3.34,1.91,8.21,6.49,14.27,13.1,3.55,3.88,13.1,19.48,14.14,29.76A85.91,85.91,0,0,0,191.06,356.68Z"/>
          <path class="cls-8" d="M213.5,373h0a.5.5,0,0,0-.6.11c-4.23,5.48-13,9.59-21,6.41a.5.5,0,0,0-.59.16.32.32,0,0,0,.2.47c8.44,3.37,17.71-.92,22.14-6.67A.32.32,0,0,0,213.5,373Z"/>
        </g>
        <path class="cls-9" d="M185.4,344.77c.65-8.88-2.69-16.25-7.46-16.48s-9.18,6.79-9.83,15.66,2.69,16.25,7.46,16.48S184.75,353.64,185.4,344.77Z"/>
      </g>
      <g id="torso">
        <path class="cls-5" d="M77.41,322.74c-4.94-.32-22.38,17.18-17.13,34.15s35,73.62,41.7,93.45,10.77,24.72,20.34,26.52,24,2.46,40.8-32.56,19.35-74.33,20.11-93-1.19-26.1-7.73-28.23C160.28,318.09,77.41,322.74,77.41,322.74Z"/>
        <path class="cls-7" d="M156.35,440.18c13-36.83,11.44-76.42,10.23-95.18-.8-12.47-2.27-19.83-5.14-23.78-13.85-.77-34.08-.44-51.23.12,9.17,24.18,22.72,64.9,25,106.85,1.51,28-2.36,41.66-7.71,48.66C136.2,475.11,146.68,467.59,156.35,440.18Z"/>
        <path class="cls-10" d="M177,324.62c0,3.63-25.65,9.26-51.52,9.3s-51.54-5.5-51.55-9.13,25.66-4,51.53-4S177,321,177,324.62Z"/>
        <path class="cls-11" d="M161.31,325.36c0,2.51-17.66,6.41-35.48,6.44S90.32,328,90.32,325.48s17.67-2.75,35.49-2.77S161.31,322.85,161.31,325.36Z"/>
        <path class="cls-12" d="M150.47,326.66c0,1-12.18,2.18-24.06,2.2s-23.24-1.16-23.24-2.12,11.36-1.34,23.24-1.36S150.47,325.7,150.47,326.66Z"/>
        <path class="cls-13" d="M112.63,454.45c-2.75-14.85-6.85-63.39-16.61-97.65-4.89-17.17-16.4-29.28-27.55-25.44-7.91,2.72-11,16.35-8.19,25.53,5.25,17,35,73.62,41.7,93.45s10.77,24.72,20.34,26.52c4.92.93,11.15,1.54,18.32-2.86C130.94,475.53,117.18,479,112.63,454.45Z"/>
        <path class="cls-14" d="M146.87,461.67a17.46,17.46,0,0,1-5.89,1,27,27,0,0,1-6.6-.49,2.64,2.64,0,0,1-2.3-2.45h0a2.38,2.38,0,0,1,2.31-2.44s5.07.56,6.31.55a45.42,45.42,0,0,0,6.4-.6c1.27,0,2.46.37,2.08,2.19A3.16,3.16,0,0,1,146.87,461.67Z"/>
        <path class="cls-15" d="M146.06,461.4a17.81,17.81,0,0,1-5.1.69,28.27,28.27,0,0,1-5.7-.34c-1.06-.22-2-.79-2-1.75h0a1.89,1.89,0,0,1,2-1.74s4.38.4,5.45.39a48,48,0,0,0,5.54-.42c1.1,0,2.13.26,1.8,1.56C147.9,460.4,147.39,461,146.06,461.4Z"/>
        <path class="cls-8" d="M139.55,450.48c-11.65,0-26-2.53-41.36-8.86a.41.41,0,0,1-.23-.54.42.42,0,0,1,.54-.23c28.73,11.81,53.44,10.31,64.25,3.92a.41.41,0,0,1,.56.15.4.4,0,0,1-.14.56C158,448.52,149.81,450.48,139.55,450.48Z"/>
        <path class="cls-16" d="M139.25,449.55c-11.66,0-25.95-2.52-41.37-8.86a.41.41,0,0,1,.32-.76c28.72,11.81,53.44,10.31,64.25,3.92a.41.41,0,0,1,.56.14.42.42,0,0,1-.14.57C157.73,447.6,149.51,449.55,139.25,449.55Z"/>
        <path class="cls-7" d="M181.06,332.32c2.2,44.89-4.27,66.13-4.27,66.13s6.18-33.92.48-66.7C176.48,327.25,180.71,325.3,181.06,332.32Z"/>
        <path class="cls-16" d="M77.85,329.18s5.1,3.08,23.78,4.81,43.26,1.41,43.26,1.41-22.66,3-43.35.77S77.85,329.18,77.85,329.18Z"/>
        <path class="cls-17" d="M143.71,458.51c-.9.07-2,.14-3,.14s-5.45-.39-5.45-.39a1.87,1.87,0,0,0-.42,0l2,3.67a38.32,38.32,0,0,0,4.1.12,18.13,18.13,0,0,0,4.75-.6Z"/>
        <g>
          <path class="cls-18" d="M156.54,363.08a15.84,15.84,0,0,0-9.89-14.69,16.59,16.59,0,0,0-1.76.22,14.62,14.62,0,0,0-12.15,13.91c0,.16,0,.31,0,.47v.17h0a9.06,9.06,0,0,1,12-8.54c-.89-.32-.86-.32.06,0a8.84,8.84,0,0,1,3.05-.53,8.65,8.65,0,0,1,8.63,8.95v.09c0,4.88-3.5,8.87-8.55,8.87a8.77,8.77,0,0,1-2.79-.45,8.85,8.85,0,0,1-3.35.65,9,9,0,0,1-9-8.9,14.45,14.45,0,0,0,12,14.21,18.33,18.33,0,0,0,1.85.23A15.85,15.85,0,0,0,156.54,363.08Z"/>
          <path class="cls-19" d="M150.83,363.18a9,9,0,0,1-5.7,8.4,8.77,8.77,0,0,0,2.79.45c5.05,0,8.55-4,8.55-8.87v-.09a8.65,8.65,0,0,0-8.63-8.95,8.84,8.84,0,0,0-3.05.53c-.92-.34-.95-.34-.06,0A9.05,9.05,0,0,1,150.83,363.18Z"/>
          <path class="cls-20" d="M147.92,348.33c-.43,0-.85,0-1.27.06a15.85,15.85,0,0,1,0,29.38c.39,0,.79.05,1.2.05,8.79,0,15.19-6.64,15.19-14.75V363C163,354.89,156.72,348.33,147.92,348.33Z"/>
          <path class="cls-21" d="M132.73,363.18a.76.76,0,0,0,0,.15c0-.05,0-.1,0-.16Z"/>
          <path class="cls-22" d="M144.89,371.5Z"/>
          <path class="cls-23" d="M144.89,371.5Z"/>
          <path class="cls-24" d="M141.78,372.23a8.85,8.85,0,0,0,3.35-.65l-.24-.08h0a8.83,8.83,0,0,1-5.83-8.43V363a8.67,8.67,0,0,1,5.72-8.34l-.05,0a9.06,9.06,0,0,0-12,8.54c0,.06,0,.11,0,.16A9,9,0,0,0,141.78,372.23Z"/>
          <path class="cls-25" d="M141.78,372.23a8.85,8.85,0,0,0,3.35-.65l-.24-.08h0a8.83,8.83,0,0,1-5.83-8.43V363a8.67,8.67,0,0,1,5.72-8.34l-.05,0a9.06,9.06,0,0,0-12,8.54c0,.06,0,.11,0,.16A9,9,0,0,0,141.78,372.23Z"/>
        </g>
      </g>
      <g id="brazoDerecho">
        <path class="cls-26" d="M87.39,354.07c.16-12-5.61-21.63-12.88-21.44s-13.3,10.1-13.45,22.14,5.6,21.63,12.88,21.44S87.23,366.11,87.39,354.07Z"/>
        <path class="cls-27" d="M72.22,335.31c-5.53,1.63-10.31,9.53-11.19,19.18-1,11,3.44,20.21,9.92,20.49s12.58-8.46,13.59-19.48S81.1,335.29,74.61,335A7.24,7.24,0,0,0,72.22,335.31Zm1,38.63a6.61,6.61,0,0,1-2.16.27c-6-.26-10.15-9.09-9.17-19.69s6.66-19,12.69-18.74,10.15,9.09,9.18,19.69C82.87,364.78,78.36,372.41,73.18,373.94Z"/>
        <g>
          <path class="cls-5" d="M46.62,394.94c-1.92-33.72,10-46.19,16.3-51.93,1.83-1.68,8.51-6.9,13.85-3.38,6.29,4.14,5.08,17.58,4.39,19.85-2.7,8.82-17.25,41.85-21,54C56.16,426.69,47.44,409.35,46.62,394.94Z"/>
          <path class="cls-6" d="M81.16,359.48c-.46,1.49-1.26,3.69-2.29,6.36-3.06,7.68-8.58,21-13,32.16-2.47,6.23-4.58,11.81-5.7,15.48-.06.19-.12.39-.19.57.92-15.69,13.47-43.6,16.69-57.67.88-3.85,3.51-12.14-3.37-17.92a7.15,7.15,0,0,1,3.44,1.17C83.06,343.77,81.85,357.21,81.16,359.48Z"/>
          <path class="cls-7" d="M57.48,351.93c-13,15.35-6.68,54.84-6.68,54.84s3.07-29.31,8-42.59S61.9,346.69,57.48,351.93Z"/>
          <path class="cls-6" d="M62.44,406.19a39,39,0,0,0,1.4,5.56c.21.48,3.53,2.16,3.48,1.9-.46-2.36-1.67-15-.16-18.7C67.69,393.64,61.89,404,62.44,406.19Z"/>
          <path class="cls-8" d="M67.55,395.25a.4.4,0,0,1-.37-.12c-4.76-5.19-13.48-8.21-20.26-3.56a.42.42,0,0,1-.57-.08.37.37,0,0,1,.1-.54c7.19-4.92,16.37-1.78,21.36,3.66a.38.38,0,0,1,0,.55A.4.4,0,0,1,67.55,395.25Z"/>
        </g>
      </g>
      <g id="cabeza">
        <g>
          <path class="cls-5" d="M81.34,308.94c11.78,15.16,47.82,12.27,57.86,11.31s27.05-2.71,33.18-21.19,3.06-46.69-13.78-61.35-61.94-12.27-77.26,7.49S77.26,303.68,81.34,308.94Z"/>
          <path class="cls-16" d="M84.45,249.23C85.12,249,99,238.17,124.24,236c8.68-.74,22.2,0,30.88,1.2-.87-.91-13.33-8.11-39-5.43C109.81,232.43,95.26,236.36,84.45,249.23Z"/>
          <path class="cls-7" d="M130.27,244.75c-8.11.13-16.24.71-23.89,3.61l-.18.07c7.94,16.82,8.59,38.72,3.94,54.39a32.9,32.9,0,0,1-6.75,12.69c14,2.47,29.71,1.19,35.81.6,6.64-.63,16.33-1.61,23.91-7.56a38.23,38.23,0,0,0,2.19-5.73c4.71-15.87,4-38.15-4.26-55A130.85,130.85,0,0,0,130.27,244.75Z"/>
          <path class="cls-28" d="M100.93,259.68c4.68-6.36,17.43-8,33.4-9,20.61-1.22,27.58,2.51,29.68,4.89s5.76,14.22,5,25.72-.91,15-5.65,17.82-18.4,5.66-27.23,5.88c-16.73.4-25.17-.41-30.76-3.7-2.86-1.68-6.5-10.73-7.07-21.89S98.51,263,100.93,259.68Z"/>
          <path class="cls-29" d="M133.75,252.48c-9.92.58-18.54,1.43-24.61,3.58,5.31,14.72,5.34,32.19,1.41,45.11l-.15.44c5.3,1.53,12.89,1.9,25.06,1.61,8.47-.2,21.58-2.82,26.13-5.49a8,8,0,0,0,3.55-3.71,76.88,76.88,0,0,0-2.62-36.6,4.18,4.18,0,0,0-.29-.38C160.21,254.82,153.53,251.33,133.75,252.48Z"/>
          <path class="cls-9" d="M90.1,270.25c-.28,6.25-3.77,11.17-7.8,11s-7.06-5.39-6.79-11.64,3.77-11.17,7.8-11S90.38,264,90.1,270.25Z"/>
          <path class="cls-30" d="M86.91,269.78c-.2,4.39-2.33,7.86-4.77,7.75s-4.27-3.75-4.07-8.14,2.33-7.85,4.77-7.74S87.1,265.4,86.91,269.78Z"/>
          <path class="cls-27" d="M87,270.11l-.42,0,.42,0a15.45,15.45,0,0,0-1.84-8.32c-1.36-2.32-3.26-3.65-5.35-3.75-4.23-.18-7.94,4.92-8.23,11.39s2.94,11.88,7.19,12.07H79C83.13,281.5,86.69,276.46,87,270.11Zm-7.23-11.24c1.81.08,3.47,1.27,4.68,3.34a14.55,14.55,0,0,1,1.72,7.87c-.27,6-3.57,10.75-7.36,10.59s-6.67-5.19-6.4-11.21,3.46-10.6,7.17-10.6Z"/>
          <path class="cls-7" d="M79.25,284.74l3,.1s1.26,12.28,4.8,19.49,8.57,9.52,8.57,9.52S88,311.4,83.46,302.05C80.2,295.31,79.25,284.74,79.25,284.74Z"/>
          <path class="cls-31" d="M103.71,260.62v0a1.57,1.57,0,0,0,2.25.53c1.44-1,3.63-2.45,4.89-3.14,2-1.08,11.83-4.72,11.83-4.72s-9.86.21-18.24,4.76A1.87,1.87,0,0,0,103.71,260.62Z"/>
        </g>
        <path class="cls-32" d="M96,268.81c0,1.94-.9,3.51-2,3.51s-2-1.57-2-3.51.9-3.51,2-3.51S96,266.88,96,268.81Z"/>
      </g>
      <g id="ojos">
        <rect class="cls-33" x="119.89" y="264.05" width="14.21" height="18.57" rx="3.93"/>
        <rect class="cls-33" x="121.38" y="266.05" width="11.23" height="14.58" rx="3.93"/>
        <rect class="cls-34" x="123.27" y="267.92" width="7.79" height="11.35" rx="2.44"/>
        <path class="cls-35" d="M130.24,272.29h-6.4a.31.31,0,1,1,0-.62h6.4a.31.31,0,0,1,0,.62Z"/>
        <path class="cls-35" d="M130.24,273.64h-6.4a.31.31,0,0,1-.31-.31.31.31,0,0,1,.31-.31h6.4a.31.31,0,0,1,.31.31A.31.31,0,0,1,130.24,273.64Z"/>
        <path class="cls-35" d="M130.24,275.05h-6.4a.31.31,0,1,1,0-.62h6.4a.31.31,0,0,1,0,.62Z"/>
        <path class="cls-35" d="M129.42,269.7h-4.77a.31.31,0,1,1,0-.62h4.77a.31.31,0,1,1,0,.62Z"/>
        <path class="cls-35" d="M130.24,271.1h-6.4a.31.31,0,0,1,0-.62h6.4a.31.31,0,0,1,0,.62Z"/>
        <path class="cls-35" d="M130.24,276.71h-6.4a.31.31,0,1,1,0-.62h6.4a.31.31,0,0,1,0,.62Z"/>
        <path class="cls-35" d="M130.24,278.06h-6.4a.31.31,0,1,1,0-.61h6.4a.31.31,0,1,1,0,.61Z"/>
        <g>
          <rect class="cls-33" x="142.54" y="264.05" width="14.21" height="18.57" rx="3.93"/>
          <rect class="cls-33" x="144.03" y="266.05" width="11.23" height="14.58" rx="3.93"/>
          <rect class="cls-34" x="145.93" y="267.92" width="7.79" height="11.35" rx="2.44"/>
          <path class="cls-35" d="M152.89,272.29h-6.4a.31.31,0,0,1,0-.62h6.4a.31.31,0,0,1,0,.62Z"/>
          <path class="cls-35" d="M152.89,273.64h-6.4a.31.31,0,0,1-.31-.31.31.31,0,0,1,.31-.31h6.4a.31.31,0,0,1,.31.31A.31.31,0,0,1,152.89,273.64Z"/>
          <path class="cls-35" d="M152.89,275.05h-6.4a.31.31,0,0,1,0-.62h6.4a.31.31,0,0,1,0,.62Z"/>
          <path class="cls-35" d="M152.07,269.7H147.3a.31.31,0,1,1,0-.62h4.77a.31.31,0,1,1,0,.62Z"/>
          <path class="cls-35" d="M152.89,271.1h-6.4a.31.31,0,0,1,0-.62h6.4a.31.31,0,0,1,0,.62Z"/>
          <path class="cls-35" d="M152.89,276.71h-6.4a.31.31,0,0,1,0-.62h6.4a.31.31,0,0,1,0,.62Z"/>
          <path class="cls-35" d="M152.89,278.06h-6.4a.31.31,0,1,1,0-.61h6.4a.31.31,0,1,1,0,.61Z"/>
        </g>
      </g>
      <path id="boca" class="cls-36" d="M130,292.14c6.42.82,17.92,1.45,17.92,1.45s-10.18,1-16.81-.11S123.06,291.26,130,292.14Z"/>
    </g>
  </g>
</svg>
